<svg width="64" height="64" viewBox="0 0 64 64" fill="none" xmlns="http://www.w3.org/2000/svg">
                        <!-- Island Dirt Base -->
                        <path d="M14 36C14 36 20 54 32 56C44 54 50 36 50 36H14Z" fill="#795548" stroke="#3E2723" stroke-width="2" stroke-linejoin="round"/>
                        <!-- Grass Top -->
                        <path d="M12 36C12 36 16 32 20 36C24 40 28 32 32 36C36 40 40 32 44 36C48 40 52 36 52 36H12Z" fill="#66BB6A" stroke="#2E7D32" stroke-width="2" stroke-linejoin="round"/>
                        <!-- Tree Trunk -->
                        <rect x="29" y="24" width="6" height="12" fill="#8D6E63" stroke="#3E2723" stroke-width="2"/>
                        <!-- Tree Leaves -->
                        <path d="M32 6C28 6 22 12 22 18C22 22 26 26 32 26C38 26 42 22 42 18C42 12 36 6 32 6Z" fill="#43A047" stroke="#1B5E20" stroke-width="2"/>
                        <!-- Cloud -->
                        <path d="M46 16C44 16 42 17 42 18C40 18 38 20 38 22H54C54 20 52 18 50 18C50 16 48 16 46 16Z" fill="#E1F5FE" fill-opacity="0.8"/>
                    </svg>
